<mxfile host="app.diagrams.net" agent="Mozilla/5.0 (Macintosh; Intel Mac OS X 10_15_7) AppleWebKit/537.36 (KHTML, like Gecko) Chrome/132.0.0.0 Safari/537.36" version="26.0.16">
  <diagram name="Page-1" id="W3iXmGLuI1Dv2qq0KpXS">
    <mxGraphModel dx="5504" dy="2164" grid="1" gridSize="10" guides="1" tooltips="1" connect="1" arrows="1" fold="1" page="1" pageScale="1" pageWidth="850" pageHeight="1100" math="0" shadow="0">
      <root>
        <mxCell id="0" />
        <mxCell id="1" parent="0" />
        <mxCell id="tWWG075bvtLCQKelEM6p-166" style="edgeStyle=orthogonalEdgeStyle;rounded=0;orthogonalLoop=1;jettySize=auto;html=1;entryX=0.5;entryY=0;entryDx=0;entryDy=0;" edge="1" parent="1" target="tWWG075bvtLCQKelEM6p-23">
          <mxGeometry relative="1" as="geometry">
            <mxPoint x="-820" y="142" as="sourcePoint" />
          </mxGeometry>
        </mxCell>
        <mxCell id="tWWG075bvtLCQKelEM6p-58" value="" style="rounded=0;whiteSpace=wrap;html=1;dashed=1;" vertex="1" parent="1">
          <mxGeometry x="-1770" y="620" width="400" height="75.5" as="geometry" />
        </mxCell>
        <mxCell id="tWWG075bvtLCQKelEM6p-19" value="" style="whiteSpace=wrap;html=1;aspect=fixed;" vertex="1" parent="1">
          <mxGeometry x="-1880" y="450" width="630" height="630" as="geometry" />
        </mxCell>
        <mxCell id="tWWG075bvtLCQKelEM6p-20" value="Dev Account" style="text;html=1;align=center;verticalAlign=middle;whiteSpace=wrap;rounded=0;" vertex="1" parent="1">
          <mxGeometry x="-1830" y="455" width="80" height="40" as="geometry" />
        </mxCell>
        <mxCell id="tWWG075bvtLCQKelEM6p-21" value="" style="sketch=0;points=[[0,0,0],[0.25,0,0],[0.5,0,0],[0.75,0,0],[1,0,0],[0,1,0],[0.25,1,0],[0.5,1,0],[0.75,1,0],[1,1,0],[0,0.25,0],[0,0.5,0],[0,0.75,0],[1,0.25,0],[1,0.5,0],[1,0.75,0]];points=[[0,0,0],[0.25,0,0],[0.5,0,0],[0.75,0,0],[1,0,0],[0,1,0],[0.25,1,0],[0.5,1,0],[0.75,1,0],[1,1,0],[0,0.25,0],[0,0.5,0],[0,0.75,0],[1,0.25,0],[1,0.5,0],[1,0.75,0]];outlineConnect=0;fontColor=#232F3E;fillColor=#E7157B;strokeColor=#ffffff;dashed=0;verticalLabelPosition=bottom;verticalAlign=top;align=center;html=1;fontSize=12;fontStyle=0;aspect=fixed;shape=mxgraph.aws4.resourceIcon;resIcon=mxgraph.aws4.management_and_governance;" vertex="1" parent="1">
          <mxGeometry x="-1880" y="450" width="50" height="50" as="geometry" />
        </mxCell>
        <mxCell id="tWWG075bvtLCQKelEM6p-3" value="" style="whiteSpace=wrap;html=1;aspect=fixed;" vertex="1" parent="1">
          <mxGeometry x="-1180" y="-580" width="700" height="700" as="geometry" />
        </mxCell>
        <mxCell id="tWWG075bvtLCQKelEM6p-2" value="" style="whiteSpace=wrap;html=1;aspect=fixed;" vertex="1" parent="1">
          <mxGeometry x="-1810" y="510" width="500" height="500" as="geometry" />
        </mxCell>
        <mxCell id="tWWG075bvtLCQKelEM6p-6" value="" style="sketch=0;points=[[0,0,0],[0.25,0,0],[0.5,0,0],[0.75,0,0],[1,0,0],[0,1,0],[0.25,1,0],[0.5,1,0],[0.75,1,0],[1,1,0],[0,0.25,0],[0,0.5,0],[0,0.75,0],[1,0.25,0],[1,0.5,0],[1,0.75,0]];points=[[0,0,0],[0.25,0,0],[0.5,0,0],[0.75,0,0],[1,0,0],[0,1,0],[0.25,1,0],[0.5,1,0],[0.75,1,0],[1,1,0],[0,0.25,0],[0,0.5,0],[0,0.75,0],[1,0.25,0],[1,0.5,0],[1,0.75,0]];outlineConnect=0;fontColor=#232F3E;fillColor=#E7157B;strokeColor=#ffffff;dashed=0;verticalLabelPosition=bottom;verticalAlign=top;align=center;html=1;fontSize=12;fontStyle=0;aspect=fixed;shape=mxgraph.aws4.resourceIcon;resIcon=mxgraph.aws4.management_and_governance;" vertex="1" parent="1">
          <mxGeometry x="-1180" y="-580" width="50" height="50" as="geometry" />
        </mxCell>
        <mxCell id="tWWG075bvtLCQKelEM6p-7" value="" style="whiteSpace=wrap;html=1;aspect=fixed;" vertex="1" parent="1">
          <mxGeometry x="-1070" y="-510" width="490" height="490" as="geometry" />
        </mxCell>
        <mxCell id="tWWG075bvtLCQKelEM6p-8" value="" style="whiteSpace=wrap;html=1;aspect=fixed;strokeColor=#00CC00;" vertex="1" parent="1">
          <mxGeometry x="-1041" y="-415" width="215" height="215" as="geometry" />
        </mxCell>
        <mxCell id="tWWG075bvtLCQKelEM6p-10" value="" style="sketch=0;points=[[0,0,0],[0.25,0,0],[0.5,0,0],[0.75,0,0],[1,0,0],[0,1,0],[0.25,1,0],[0.5,1,0],[0.75,1,0],[1,1,0],[0,0.25,0],[0,0.5,0],[0,0.75,0],[1,0.25,0],[1,0.5,0],[1,0.75,0]];outlineConnect=0;fontColor=#232F3E;fillColor=#8C4FFF;strokeColor=#ffffff;dashed=0;verticalLabelPosition=bottom;verticalAlign=top;align=center;html=1;fontSize=12;fontStyle=0;aspect=fixed;shape=mxgraph.aws4.resourceIcon;resIcon=mxgraph.aws4.vpc;" vertex="1" parent="1">
          <mxGeometry x="-1070" y="-510" width="40" height="40" as="geometry" />
        </mxCell>
        <mxCell id="tWWG075bvtLCQKelEM6p-12" value="" style="sketch=0;outlineConnect=0;fontColor=#232F3E;gradientColor=none;fillColor=#8C4FFF;strokeColor=none;dashed=0;verticalLabelPosition=bottom;verticalAlign=top;align=center;html=1;fontSize=12;fontStyle=0;aspect=fixed;pointerEvents=1;shape=mxgraph.aws4.gateway_load_balancer;" vertex="1" parent="1">
          <mxGeometry x="-950" y="-395" width="50" height="50" as="geometry" />
        </mxCell>
        <mxCell id="tWWG075bvtLCQKelEM6p-9" value="" style="sketch=0;outlineConnect=0;fontColor=#232F3E;gradientColor=none;fillColor=#8C4FFF;strokeColor=none;dashed=0;verticalLabelPosition=bottom;verticalAlign=top;align=center;html=1;fontSize=12;fontStyle=0;aspect=fixed;pointerEvents=1;shape=mxgraph.aws4.internet_gateway;" vertex="1" parent="1">
          <mxGeometry x="-590" y="-400.5" width="58" height="58" as="geometry" />
        </mxCell>
        <mxCell id="tWWG075bvtLCQKelEM6p-14" value="Networking Account" style="text;html=1;align=center;verticalAlign=middle;whiteSpace=wrap;rounded=0;" vertex="1" parent="1">
          <mxGeometry x="-1130" y="-575" width="80" height="40" as="geometry" />
        </mxCell>
        <mxCell id="tWWG075bvtLCQKelEM6p-15" value="Internet VPC" style="text;html=1;align=center;verticalAlign=middle;whiteSpace=wrap;rounded=0;" vertex="1" parent="1">
          <mxGeometry x="-1030" y="-500" width="60" height="30" as="geometry" />
        </mxCell>
        <mxCell id="tWWG075bvtLCQKelEM6p-16" value="NAT Gateway" style="text;html=1;align=center;verticalAlign=middle;whiteSpace=wrap;rounded=0;" vertex="1" parent="1">
          <mxGeometry x="-900" y="-392" width="60" height="30" as="geometry" />
        </mxCell>
        <mxCell id="tWWG075bvtLCQKelEM6p-18" value="Public Subnet" style="text;html=1;align=center;verticalAlign=middle;whiteSpace=wrap;rounded=0;" vertex="1" parent="1">
          <mxGeometry x="-1040" y="-415" width="60" height="30" as="geometry" />
        </mxCell>
        <mxCell id="tWWG075bvtLCQKelEM6p-17" value="Internet Gateway" style="text;html=1;align=center;verticalAlign=middle;whiteSpace=wrap;rounded=0;" vertex="1" parent="1">
          <mxGeometry x="-590" y="-342.5" width="60" height="30" as="geometry" />
        </mxCell>
        <mxCell id="tWWG075bvtLCQKelEM6p-22" value="" style="sketch=0;points=[[0,0,0],[0.25,0,0],[0.5,0,0],[0.75,0,0],[1,0,0],[0,1,0],[0.25,1,0],[0.5,1,0],[0.75,1,0],[1,1,0],[0,0.25,0],[0,0.5,0],[0,0.75,0],[1,0.25,0],[1,0.5,0],[1,0.75,0]];outlineConnect=0;fontColor=#232F3E;fillColor=#8C4FFF;strokeColor=#ffffff;dashed=0;verticalLabelPosition=bottom;verticalAlign=top;align=center;html=1;fontSize=12;fontStyle=0;aspect=fixed;shape=mxgraph.aws4.resourceIcon;resIcon=mxgraph.aws4.vpc;" vertex="1" parent="1">
          <mxGeometry x="-1810" y="510" width="30" height="30" as="geometry" />
        </mxCell>
        <mxCell id="tWWG075bvtLCQKelEM6p-23" value="" style="whiteSpace=wrap;html=1;aspect=fixed;" vertex="1" parent="1">
          <mxGeometry x="-350" y="430" width="650" height="650" as="geometry" />
        </mxCell>
        <mxCell id="tWWG075bvtLCQKelEM6p-24" value="Prod Account" style="text;html=1;align=center;verticalAlign=middle;whiteSpace=wrap;rounded=0;" vertex="1" parent="1">
          <mxGeometry x="-300" y="435" width="80" height="40" as="geometry" />
        </mxCell>
        <mxCell id="tWWG075bvtLCQKelEM6p-25" value="" style="sketch=0;points=[[0,0,0],[0.25,0,0],[0.5,0,0],[0.75,0,0],[1,0,0],[0,1,0],[0.25,1,0],[0.5,1,0],[0.75,1,0],[1,1,0],[0,0.25,0],[0,0.5,0],[0,0.75,0],[1,0.25,0],[1,0.5,0],[1,0.75,0]];points=[[0,0,0],[0.25,0,0],[0.5,0,0],[0.75,0,0],[1,0,0],[0,1,0],[0.25,1,0],[0.5,1,0],[0.75,1,0],[1,1,0],[0,0.25,0],[0,0.5,0],[0,0.75,0],[1,0.25,0],[1,0.5,0],[1,0.75,0]];outlineConnect=0;fontColor=#232F3E;fillColor=#E7157B;strokeColor=#ffffff;dashed=0;verticalLabelPosition=bottom;verticalAlign=top;align=center;html=1;fontSize=12;fontStyle=0;aspect=fixed;shape=mxgraph.aws4.resourceIcon;resIcon=mxgraph.aws4.management_and_governance;" vertex="1" parent="1">
          <mxGeometry x="-350" y="430" width="50" height="50" as="geometry" />
        </mxCell>
        <mxCell id="tWWG075bvtLCQKelEM6p-31" value="" style="whiteSpace=wrap;html=1;aspect=fixed;strokeColor=#004C99;" vertex="1" parent="1">
          <mxGeometry x="-1789.5" y="590" width="180" height="180" as="geometry" />
        </mxCell>
        <mxCell id="tWWG075bvtLCQKelEM6p-32" value="Private Subnet" style="text;html=1;align=center;verticalAlign=middle;whiteSpace=wrap;rounded=0;" vertex="1" parent="1">
          <mxGeometry x="-1789.5" y="590" width="60" height="30" as="geometry" />
        </mxCell>
        <mxCell id="tWWG075bvtLCQKelEM6p-34" value="" style="whiteSpace=wrap;html=1;aspect=fixed;strokeColor=#004C99;" vertex="1" parent="1">
          <mxGeometry x="-1530" y="590" width="180" height="180" as="geometry" />
        </mxCell>
        <mxCell id="tWWG075bvtLCQKelEM6p-35" value="Private Subnet" style="text;html=1;align=center;verticalAlign=middle;whiteSpace=wrap;rounded=0;" vertex="1" parent="1">
          <mxGeometry x="-1540" y="590" width="60" height="30" as="geometry" />
        </mxCell>
        <mxCell id="tWWG075bvtLCQKelEM6p-40" value="" style="whiteSpace=wrap;html=1;aspect=fixed;strokeColor=#004C99;" vertex="1" parent="1">
          <mxGeometry x="-1790" y="790" width="180" height="180" as="geometry" />
        </mxCell>
        <mxCell id="tWWG075bvtLCQKelEM6p-41" value="Private Subnet" style="text;html=1;align=center;verticalAlign=middle;whiteSpace=wrap;rounded=0;" vertex="1" parent="1">
          <mxGeometry x="-1790" y="790" width="60" height="30" as="geometry" />
        </mxCell>
        <mxCell id="tWWG075bvtLCQKelEM6p-42" value="" style="whiteSpace=wrap;html=1;aspect=fixed;strokeColor=#004C99;" vertex="1" parent="1">
          <mxGeometry x="-1529.5" y="790" width="180" height="180" as="geometry" />
        </mxCell>
        <mxCell id="tWWG075bvtLCQKelEM6p-43" value="Private Subnet" style="text;html=1;align=center;verticalAlign=middle;whiteSpace=wrap;rounded=0;" vertex="1" parent="1">
          <mxGeometry x="-1530" y="790" width="60" height="30" as="geometry" />
        </mxCell>
        <mxCell id="tWWG075bvtLCQKelEM6p-5" value="" style="sketch=0;points=[[0,0,0],[0.25,0,0],[0.5,0,0],[0.75,0,0],[1,0,0],[0,1,0],[0.25,1,0],[0.5,1,0],[0.75,1,0],[1,1,0],[0,0.25,0],[0,0.5,0],[0,0.75,0],[1,0.25,0],[1,0.5,0],[1,0.75,0]];outlineConnect=0;fontColor=#232F3E;fillColor=#8C4FFF;strokeColor=#ffffff;dashed=0;verticalLabelPosition=bottom;verticalAlign=top;align=center;html=1;fontSize=12;fontStyle=0;aspect=fixed;shape=mxgraph.aws4.resourceIcon;resIcon=mxgraph.aws4.transit_gateway;" vertex="1" parent="1">
          <mxGeometry x="-870.5" y="20" width="80" height="80" as="geometry" />
        </mxCell>
        <mxCell id="tWWG075bvtLCQKelEM6p-45" value="" style="whiteSpace=wrap;html=1;aspect=fixed;strokeColor=#00CC00;" vertex="1" parent="1">
          <mxGeometry x="-810" y="-413.5" width="210" height="210" as="geometry" />
        </mxCell>
        <mxCell id="tWWG075bvtLCQKelEM6p-46" value="" style="sketch=0;outlineConnect=0;fontColor=#232F3E;gradientColor=none;fillColor=#8C4FFF;strokeColor=none;dashed=0;verticalLabelPosition=bottom;verticalAlign=top;align=center;html=1;fontSize=12;fontStyle=0;aspect=fixed;pointerEvents=1;shape=mxgraph.aws4.gateway_load_balancer;" vertex="1" parent="1">
          <mxGeometry x="-752" y="-398" width="53" height="53" as="geometry" />
        </mxCell>
        <mxCell id="tWWG075bvtLCQKelEM6p-47" value="NAT Gateway" style="text;html=1;align=center;verticalAlign=middle;whiteSpace=wrap;rounded=0;" vertex="1" parent="1">
          <mxGeometry x="-699" y="-385" width="60" height="30" as="geometry" />
        </mxCell>
        <mxCell id="tWWG075bvtLCQKelEM6p-48" value="Public Subnet" style="text;html=1;align=center;verticalAlign=middle;whiteSpace=wrap;rounded=0;" vertex="1" parent="1">
          <mxGeometry x="-810" y="-406" width="60" height="30" as="geometry" />
        </mxCell>
        <mxCell id="tWWG075bvtLCQKelEM6p-50" value="" style="sketch=0;outlineConnect=0;fontColor=#232F3E;gradientColor=none;fillColor=#8C4FFF;strokeColor=none;dashed=0;verticalLabelPosition=bottom;verticalAlign=top;align=center;html=1;fontSize=12;fontStyle=0;aspect=fixed;pointerEvents=1;shape=mxgraph.aws4.network_load_balancer;" vertex="1" parent="1">
          <mxGeometry x="-750" y="-257.5" width="49" height="49" as="geometry" />
        </mxCell>
        <mxCell id="tWWG075bvtLCQKelEM6p-51" value="" style="sketch=0;outlineConnect=0;fontColor=#232F3E;gradientColor=none;fillColor=#8C4FFF;strokeColor=none;dashed=0;verticalLabelPosition=bottom;verticalAlign=top;align=center;html=1;fontSize=12;fontStyle=0;aspect=fixed;pointerEvents=1;shape=mxgraph.aws4.network_load_balancer;" vertex="1" parent="1">
          <mxGeometry x="-945" y="-258.5" width="50" height="50" as="geometry" />
        </mxCell>
        <mxCell id="tWWG075bvtLCQKelEM6p-52" value="" style="whiteSpace=wrap;html=1;aspect=fixed;" vertex="1" parent="1">
          <mxGeometry x="-1090" y="430" width="650" height="650" as="geometry" />
        </mxCell>
        <mxCell id="tWWG075bvtLCQKelEM6p-53" value="Shared Infra" style="text;html=1;align=center;verticalAlign=middle;whiteSpace=wrap;rounded=0;" vertex="1" parent="1">
          <mxGeometry x="-1040" y="440" width="80" height="40" as="geometry" />
        </mxCell>
        <mxCell id="tWWG075bvtLCQKelEM6p-54" value="" style="sketch=0;points=[[0,0,0],[0.25,0,0],[0.5,0,0],[0.75,0,0],[1,0,0],[0,1,0],[0.25,1,0],[0.5,1,0],[0.75,1,0],[1,1,0],[0,0.25,0],[0,0.5,0],[0,0.75,0],[1,0.25,0],[1,0.5,0],[1,0.75,0]];points=[[0,0,0],[0.25,0,0],[0.5,0,0],[0.75,0,0],[1,0,0],[0,1,0],[0.25,1,0],[0.5,1,0],[0.75,1,0],[1,1,0],[0,0.25,0],[0,0.5,0],[0,0.75,0],[1,0.25,0],[1,0.5,0],[1,0.75,0]];outlineConnect=0;fontColor=#232F3E;fillColor=#E7157B;strokeColor=#ffffff;dashed=0;verticalLabelPosition=bottom;verticalAlign=top;align=center;html=1;fontSize=12;fontStyle=0;aspect=fixed;shape=mxgraph.aws4.resourceIcon;resIcon=mxgraph.aws4.management_and_governance;" vertex="1" parent="1">
          <mxGeometry x="-1090" y="430" width="50" height="50" as="geometry" />
        </mxCell>
        <mxCell id="tWWG075bvtLCQKelEM6p-55" value="" style="whiteSpace=wrap;html=1;aspect=fixed;" vertex="1" parent="1">
          <mxGeometry x="-935" y="609" width="290" height="290" as="geometry" />
        </mxCell>
        <mxCell id="tWWG075bvtLCQKelEM6p-56" value="" style="sketch=0;points=[[0,0,0],[0.25,0,0],[0.5,0,0],[0.75,0,0],[1,0,0],[0,1,0],[0.25,1,0],[0.5,1,0],[0.75,1,0],[1,1,0],[0,0.25,0],[0,0.5,0],[0,0.75,0],[1,0.25,0],[1,0.5,0],[1,0.75,0]];outlineConnect=0;fontColor=#232F3E;fillColor=#8C4FFF;strokeColor=#ffffff;dashed=0;verticalLabelPosition=bottom;verticalAlign=top;align=center;html=1;fontSize=12;fontStyle=0;aspect=fixed;shape=mxgraph.aws4.resourceIcon;resIcon=mxgraph.aws4.vpc;" vertex="1" parent="1">
          <mxGeometry x="-935" y="610" width="40" height="40" as="geometry" />
        </mxCell>
        <mxCell id="tWWG075bvtLCQKelEM6p-61" value="" style="rounded=0;whiteSpace=wrap;html=1;dashed=1;dashPattern=8 8;" vertex="1" parent="1">
          <mxGeometry x="-945" y="445" width="400" height="110" as="geometry" />
        </mxCell>
        <mxCell id="tWWG075bvtLCQKelEM6p-62" value="" style="sketch=0;points=[[0,0,0],[0.25,0,0],[0.5,0,0],[0.75,0,0],[1,0,0],[0,1,0],[0.25,1,0],[0.5,1,0],[0.75,1,0],[1,1,0],[0,0.25,0],[0,0.5,0],[0,0.75,0],[1,0.25,0],[1,0.5,0],[1,0.75,0]];outlineConnect=0;fontColor=#232F3E;fillColor=#C925D1;strokeColor=#ffffff;dashed=0;verticalLabelPosition=bottom;verticalAlign=top;align=center;html=1;fontSize=12;fontStyle=0;aspect=fixed;shape=mxgraph.aws4.resourceIcon;resIcon=mxgraph.aws4.codepipeline;" vertex="1" parent="1">
          <mxGeometry x="-919.5" y="455" width="49" height="49" as="geometry" />
        </mxCell>
        <mxCell id="tWWG075bvtLCQKelEM6p-63" value="" style="sketch=0;points=[[0,0,0],[0.25,0,0],[0.5,0,0],[0.75,0,0],[1,0,0],[0,1,0],[0.25,1,0],[0.5,1,0],[0.75,1,0],[1,1,0],[0,0.25,0],[0,0.5,0],[0,0.75,0],[1,0.25,0],[1,0.5,0],[1,0.75,0]];outlineConnect=0;fontColor=#232F3E;fillColor=#C925D1;strokeColor=#ffffff;dashed=0;verticalLabelPosition=bottom;verticalAlign=top;align=center;html=1;fontSize=12;fontStyle=0;aspect=fixed;shape=mxgraph.aws4.resourceIcon;resIcon=mxgraph.aws4.codebuild;" vertex="1" parent="1">
          <mxGeometry x="-823" y="453" width="51" height="51" as="geometry" />
        </mxCell>
        <mxCell id="tWWG075bvtLCQKelEM6p-64" value="" style="sketch=0;outlineConnect=0;fontColor=#232F3E;gradientColor=none;fillColor=#C925D1;strokeColor=none;dashed=0;verticalLabelPosition=bottom;verticalAlign=top;align=center;html=1;fontSize=12;fontStyle=0;aspect=fixed;pointerEvents=1;shape=mxgraph.aws4.rds_instance_alt;" vertex="1" parent="1">
          <mxGeometry x="-1738.5" y="850" width="78" height="78" as="geometry" />
        </mxCell>
        <mxCell id="tWWG075bvtLCQKelEM6p-65" value="" style="sketch=0;points=[[0,0,0],[0.25,0,0],[0.5,0,0],[0.75,0,0],[1,0,0],[0,1,0],[0.25,1,0],[0.5,1,0],[0.75,1,0],[1,1,0],[0,0.25,0],[0,0.5,0],[0,0.75,0],[1,0.25,0],[1,0.5,0],[1,0.75,0]];outlineConnect=0;fontColor=#232F3E;fillColor=#ED7100;strokeColor=#ffffff;dashed=0;verticalLabelPosition=bottom;verticalAlign=top;align=center;html=1;fontSize=12;fontStyle=0;aspect=fixed;shape=mxgraph.aws4.resourceIcon;resIcon=mxgraph.aws4.ecr;" vertex="1" parent="1">
          <mxGeometry x="-735" y="456" width="48" height="48" as="geometry" />
        </mxCell>
        <mxCell id="tWWG075bvtLCQKelEM6p-66" value="" style="sketch=0;points=[[0,0,0],[0.25,0,0],[0.5,0,0],[0.75,0,0],[1,0,0],[0,1,0],[0.25,1,0],[0.5,1,0],[0.75,1,0],[1,1,0],[0,0.25,0],[0,0.5,0],[0,0.75,0],[1,0.25,0],[1,0.5,0],[1,0.75,0]];outlineConnect=0;fontColor=#232F3E;fillColor=#7AA116;strokeColor=#ffffff;dashed=0;verticalLabelPosition=bottom;verticalAlign=top;align=center;html=1;fontSize=12;fontStyle=0;aspect=fixed;shape=mxgraph.aws4.resourceIcon;resIcon=mxgraph.aws4.s3;" vertex="1" parent="1">
          <mxGeometry x="-645" y="455" width="58" height="58" as="geometry" />
        </mxCell>
        <mxCell id="tWWG075bvtLCQKelEM6p-72" value="CodePipeline" style="text;html=1;align=center;verticalAlign=middle;whiteSpace=wrap;rounded=0;" vertex="1" parent="1">
          <mxGeometry x="-919.5" y="513" width="60" height="30" as="geometry" />
        </mxCell>
        <mxCell id="tWWG075bvtLCQKelEM6p-73" value="CodeBuild" style="text;html=1;align=center;verticalAlign=middle;whiteSpace=wrap;rounded=0;" vertex="1" parent="1">
          <mxGeometry x="-820" y="513" width="60" height="30" as="geometry" />
        </mxCell>
        <mxCell id="tWWG075bvtLCQKelEM6p-74" value="ECR" style="text;html=1;align=center;verticalAlign=middle;whiteSpace=wrap;rounded=0;" vertex="1" parent="1">
          <mxGeometry x="-740" y="513" width="60" height="30" as="geometry" />
        </mxCell>
        <mxCell id="tWWG075bvtLCQKelEM6p-75" value="S3" style="text;html=1;align=center;verticalAlign=middle;whiteSpace=wrap;rounded=0;" vertex="1" parent="1">
          <mxGeometry x="-645" y="520" width="60" height="30" as="geometry" />
        </mxCell>
        <mxCell id="tWWG075bvtLCQKelEM6p-76" value="" style="whiteSpace=wrap;html=1;aspect=fixed;strokeColor=#004C99;" vertex="1" parent="1">
          <mxGeometry x="-865" y="650" width="180" height="180" as="geometry" />
        </mxCell>
        <mxCell id="tWWG075bvtLCQKelEM6p-77" value="Endpoint Subnet" style="text;html=1;align=center;verticalAlign=middle;whiteSpace=wrap;rounded=0;" vertex="1" parent="1">
          <mxGeometry x="-865" y="650" width="60" height="30" as="geometry" />
        </mxCell>
        <mxCell id="tWWG075bvtLCQKelEM6p-78" value="" style="sketch=0;outlineConnect=0;fontColor=#232F3E;gradientColor=none;fillColor=#8C4FFF;strokeColor=none;dashed=0;verticalLabelPosition=bottom;verticalAlign=top;align=center;html=1;fontSize=12;fontStyle=0;aspect=fixed;pointerEvents=1;shape=mxgraph.aws4.endpoints;" vertex="1" parent="1">
          <mxGeometry x="-809" y="671" width="78" height="78" as="geometry" />
        </mxCell>
        <mxCell id="tWWG075bvtLCQKelEM6p-113" value="" style="whiteSpace=wrap;html=1;aspect=fixed;" vertex="1" parent="1">
          <mxGeometry x="-275" y="504" width="500" height="500" as="geometry" />
        </mxCell>
        <mxCell id="tWWG075bvtLCQKelEM6p-114" value="" style="sketch=0;points=[[0,0,0],[0.25,0,0],[0.5,0,0],[0.75,0,0],[1,0,0],[0,1,0],[0.25,1,0],[0.5,1,0],[0.75,1,0],[1,1,0],[0,0.25,0],[0,0.5,0],[0,0.75,0],[1,0.25,0],[1,0.5,0],[1,0.75,0]];outlineConnect=0;fontColor=#232F3E;fillColor=#8C4FFF;strokeColor=#ffffff;dashed=0;verticalLabelPosition=bottom;verticalAlign=top;align=center;html=1;fontSize=12;fontStyle=0;aspect=fixed;shape=mxgraph.aws4.resourceIcon;resIcon=mxgraph.aws4.vpc;" vertex="1" parent="1">
          <mxGeometry x="-275" y="504" width="30" height="30" as="geometry" />
        </mxCell>
        <mxCell id="tWWG075bvtLCQKelEM6p-115" value="Private Subnet" style="text;html=1;align=center;verticalAlign=middle;whiteSpace=wrap;rounded=0;" vertex="1" parent="1">
          <mxGeometry x="-254.5" y="584" width="60" height="30" as="geometry" />
        </mxCell>
        <mxCell id="tWWG075bvtLCQKelEM6p-116" value="" style="sketch=0;outlineConnect=0;fontColor=#232F3E;gradientColor=none;fillColor=#ED7100;strokeColor=none;dashed=0;verticalLabelPosition=bottom;verticalAlign=top;align=center;html=1;fontSize=12;fontStyle=0;aspect=fixed;pointerEvents=1;shape=mxgraph.aws4.container_1;" vertex="1" parent="1">
          <mxGeometry x="-225" y="644" width="48" height="31" as="geometry" />
        </mxCell>
        <mxCell id="tWWG075bvtLCQKelEM6p-117" value="" style="sketch=0;outlineConnect=0;fontColor=#232F3E;gradientColor=none;fillColor=#ED7100;strokeColor=none;dashed=0;verticalLabelPosition=bottom;verticalAlign=top;align=center;html=1;fontSize=12;fontStyle=0;aspect=fixed;pointerEvents=1;shape=mxgraph.aws4.container_1;" vertex="1" parent="1">
          <mxGeometry x="-145" y="644" width="48" height="31" as="geometry" />
        </mxCell>
        <mxCell id="tWWG075bvtLCQKelEM6p-118" value="" style="whiteSpace=wrap;html=1;aspect=fixed;strokeColor=#004C99;" vertex="1" parent="1">
          <mxGeometry x="-254.5" y="584" width="180" height="180" as="geometry" />
        </mxCell>
        <mxCell id="tWWG075bvtLCQKelEM6p-119" value="Private Subnet" style="text;html=1;align=center;verticalAlign=middle;whiteSpace=wrap;rounded=0;" vertex="1" parent="1">
          <mxGeometry x="-5" y="584" width="60" height="30" as="geometry" />
        </mxCell>
        <mxCell id="tWWG075bvtLCQKelEM6p-120" value="" style="sketch=0;outlineConnect=0;fontColor=#232F3E;gradientColor=none;fillColor=#ED7100;strokeColor=none;dashed=0;verticalLabelPosition=bottom;verticalAlign=top;align=center;html=1;fontSize=12;fontStyle=0;aspect=fixed;pointerEvents=1;shape=mxgraph.aws4.container_1;" vertex="1" parent="1">
          <mxGeometry x="25" y="644" width="48" height="31" as="geometry" />
        </mxCell>
        <mxCell id="tWWG075bvtLCQKelEM6p-121" value="" style="whiteSpace=wrap;html=1;aspect=fixed;strokeColor=#004C99;" vertex="1" parent="1">
          <mxGeometry x="5" y="584" width="180" height="180" as="geometry" />
        </mxCell>
        <mxCell id="tWWG075bvtLCQKelEM6p-124" value="Private Subnet" style="text;html=1;align=center;verticalAlign=middle;whiteSpace=wrap;rounded=0;" vertex="1" parent="1">
          <mxGeometry x="-255" y="784" width="60" height="30" as="geometry" />
        </mxCell>
        <mxCell id="tWWG075bvtLCQKelEM6p-125" value="" style="sketch=0;outlineConnect=0;fontColor=#232F3E;gradientColor=none;fillColor=#C925D1;strokeColor=none;dashed=0;verticalLabelPosition=bottom;verticalAlign=top;align=center;html=1;fontSize=12;fontStyle=0;aspect=fixed;pointerEvents=1;shape=mxgraph.aws4.rds_instance_alt;" vertex="1" parent="1">
          <mxGeometry x="-203.5" y="844" width="78" height="78" as="geometry" />
        </mxCell>
        <mxCell id="tWWG075bvtLCQKelEM6p-126" value="" style="whiteSpace=wrap;html=1;aspect=fixed;strokeColor=#004C99;" vertex="1" parent="1">
          <mxGeometry x="-255" y="784" width="180" height="180" as="geometry" />
        </mxCell>
        <mxCell id="tWWG075bvtLCQKelEM6p-127" value="" style="whiteSpace=wrap;html=1;aspect=fixed;strokeColor=#004C99;" vertex="1" parent="1">
          <mxGeometry x="5.5" y="784" width="180" height="180" as="geometry" />
        </mxCell>
        <mxCell id="tWWG075bvtLCQKelEM6p-128" value="Private Subnet" style="text;html=1;align=center;verticalAlign=middle;whiteSpace=wrap;rounded=0;" vertex="1" parent="1">
          <mxGeometry x="5" y="784" width="60" height="30" as="geometry" />
        </mxCell>
        <mxCell id="tWWG075bvtLCQKelEM6p-136" value="Private Subnet" style="text;html=1;align=center;verticalAlign=middle;whiteSpace=wrap;rounded=0;" vertex="1" parent="1">
          <mxGeometry y="584" width="60" height="30" as="geometry" />
        </mxCell>
        <mxCell id="tWWG075bvtLCQKelEM6p-137" value="Private Subnet" style="text;html=1;align=center;verticalAlign=middle;whiteSpace=wrap;rounded=0;" vertex="1" parent="1">
          <mxGeometry x="-263.5" y="584" width="60" height="30" as="geometry" />
        </mxCell>
        <mxCell id="tWWG075bvtLCQKelEM6p-138" value="Private Subnet" style="text;html=1;align=center;verticalAlign=middle;whiteSpace=wrap;rounded=0;" vertex="1" parent="1">
          <mxGeometry x="-263.5" y="790" width="60" height="30" as="geometry" />
        </mxCell>
        <mxCell id="tWWG075bvtLCQKelEM6p-139" value="" style="sketch=0;points=[[0,0,0],[0.25,0,0],[0.5,0,0],[0.75,0,0],[1,0,0],[0,1,0],[0.25,1,0],[0.5,1,0],[0.75,1,0],[1,1,0],[0,0.25,0],[0,0.5,0],[0,0.75,0],[1,0.25,0],[1,0.5,0],[1,0.75,0]];outlineConnect=0;fontColor=#232F3E;fillColor=#C925D1;strokeColor=#ffffff;dashed=0;verticalLabelPosition=bottom;verticalAlign=top;align=center;html=1;fontSize=12;fontStyle=0;aspect=fixed;shape=mxgraph.aws4.resourceIcon;resIcon=mxgraph.aws4.rds;" vertex="1" parent="1">
          <mxGeometry x="-55" y="840" width="45" height="45" as="geometry" />
        </mxCell>
        <mxCell id="tWWG075bvtLCQKelEM6p-140" value="" style="sketch=0;outlineConnect=0;fontColor=#232F3E;gradientColor=none;fillColor=#C925D1;strokeColor=none;dashed=0;verticalLabelPosition=bottom;verticalAlign=top;align=center;html=1;fontSize=12;fontStyle=0;aspect=fixed;pointerEvents=1;shape=mxgraph.aws4.rds_instance_alt;" vertex="1" parent="1">
          <mxGeometry x="-203.5" y="830" width="78" height="78" as="geometry" />
        </mxCell>
        <mxCell id="tWWG075bvtLCQKelEM6p-141" value="" style="sketch=0;outlineConnect=0;fontColor=#232F3E;gradientColor=none;fillColor=#C925D1;strokeColor=none;dashed=0;verticalLabelPosition=bottom;verticalAlign=top;align=center;html=1;fontSize=12;fontStyle=0;aspect=fixed;pointerEvents=1;shape=mxgraph.aws4.rds_instance_alt;" vertex="1" parent="1">
          <mxGeometry x="60" y="830" width="78" height="78" as="geometry" />
        </mxCell>
        <mxCell id="tWWG075bvtLCQKelEM6p-142" value="ALB" style="text;html=1;align=center;verticalAlign=middle;whiteSpace=wrap;rounded=0;" vertex="1" parent="1">
          <mxGeometry x="-890" y="-247" width="57" height="26" as="geometry" />
        </mxCell>
        <mxCell id="tWWG075bvtLCQKelEM6p-143" value="ALB" style="text;html=1;align=center;verticalAlign=middle;whiteSpace=wrap;rounded=0;" vertex="1" parent="1">
          <mxGeometry x="-705" y="-246" width="57" height="26" as="geometry" />
        </mxCell>
        <mxCell id="tWWG075bvtLCQKelEM6p-144" value="" style="rounded=1;whiteSpace=wrap;html=1;" vertex="1" parent="1">
          <mxGeometry x="-1770" y="627.75" width="410" height="82.25" as="geometry" />
        </mxCell>
        <mxCell id="tWWG075bvtLCQKelEM6p-36" value="" style="sketch=0;outlineConnect=0;fontColor=#232F3E;gradientColor=none;fillColor=#ED7100;strokeColor=none;dashed=0;verticalLabelPosition=bottom;verticalAlign=top;align=center;html=1;fontSize=12;fontStyle=0;aspect=fixed;pointerEvents=1;shape=mxgraph.aws4.container_1;" vertex="1" parent="1">
          <mxGeometry x="-1760" y="650" width="48" height="31" as="geometry" />
        </mxCell>
        <mxCell id="tWWG075bvtLCQKelEM6p-37" value="" style="sketch=0;outlineConnect=0;fontColor=#232F3E;gradientColor=none;fillColor=#ED7100;strokeColor=none;dashed=0;verticalLabelPosition=bottom;verticalAlign=top;align=center;html=1;fontSize=12;fontStyle=0;aspect=fixed;pointerEvents=1;shape=mxgraph.aws4.container_1;" vertex="1" parent="1">
          <mxGeometry x="-1680" y="650" width="48" height="31" as="geometry" />
        </mxCell>
        <mxCell id="tWWG075bvtLCQKelEM6p-33" value="" style="sketch=0;points=[[0,0,0],[0.25,0,0],[0.5,0,0],[0.75,0,0],[1,0,0],[0,1,0],[0.25,1,0],[0.5,1,0],[0.75,1,0],[1,1,0],[0,0.25,0],[0,0.5,0],[0,0.75,0],[1,0.25,0],[1,0.5,0],[1,0.75,0]];outlineConnect=0;fontColor=#232F3E;fillColor=#ED7100;strokeColor=#ffffff;dashed=0;verticalLabelPosition=bottom;verticalAlign=top;align=center;html=1;fontSize=12;fontStyle=0;aspect=fixed;shape=mxgraph.aws4.resourceIcon;resIcon=mxgraph.aws4.ecs;" vertex="1" parent="1">
          <mxGeometry x="-1590" y="630" width="39" height="39" as="geometry" />
        </mxCell>
        <mxCell id="tWWG075bvtLCQKelEM6p-38" value="" style="sketch=0;outlineConnect=0;fontColor=#232F3E;gradientColor=none;fillColor=#ED7100;strokeColor=none;dashed=0;verticalLabelPosition=bottom;verticalAlign=top;align=center;html=1;fontSize=12;fontStyle=0;aspect=fixed;pointerEvents=1;shape=mxgraph.aws4.container_1;" vertex="1" parent="1">
          <mxGeometry x="-1510" y="650" width="50" height="32.29" as="geometry" />
        </mxCell>
        <mxCell id="tWWG075bvtLCQKelEM6p-39" value="" style="sketch=0;outlineConnect=0;fontColor=#232F3E;gradientColor=none;fillColor=#ED7100;strokeColor=none;dashed=0;verticalLabelPosition=bottom;verticalAlign=top;align=center;html=1;fontSize=12;fontStyle=0;aspect=fixed;pointerEvents=1;shape=mxgraph.aws4.container_1;" vertex="1" parent="1">
          <mxGeometry x="-1430" y="650" width="50" height="32.29" as="geometry" />
        </mxCell>
        <mxCell id="tWWG075bvtLCQKelEM6p-145" value="ECS Cluster" style="text;html=1;align=center;verticalAlign=middle;whiteSpace=wrap;rounded=0;" vertex="1" parent="1">
          <mxGeometry x="-1595" y="675" width="60" height="30" as="geometry" />
        </mxCell>
        <mxCell id="tWWG075bvtLCQKelEM6p-165" style="edgeStyle=orthogonalEdgeStyle;rounded=0;orthogonalLoop=1;jettySize=auto;html=1;entryX=0.408;entryY=0.002;entryDx=0;entryDy=0;entryPerimeter=0;" edge="1" parent="1" source="tWWG075bvtLCQKelEM6p-5" target="tWWG075bvtLCQKelEM6p-52">
          <mxGeometry relative="1" as="geometry">
            <Array as="points">
              <mxPoint x="-830" y="431" />
            </Array>
          </mxGeometry>
        </mxCell>
        <mxCell id="tWWG075bvtLCQKelEM6p-167" style="edgeStyle=orthogonalEdgeStyle;rounded=0;orthogonalLoop=1;jettySize=auto;html=1;entryX=0.487;entryY=-0.005;entryDx=0;entryDy=0;entryPerimeter=0;" edge="1" parent="1" target="tWWG075bvtLCQKelEM6p-19">
          <mxGeometry relative="1" as="geometry">
            <mxPoint x="-830" y="140" as="sourcePoint" />
            <Array as="points">
              <mxPoint x="-830" y="141" />
              <mxPoint x="-1573" y="141" />
            </Array>
          </mxGeometry>
        </mxCell>
        <mxCell id="tWWG075bvtLCQKelEM6p-168" value="" style="rounded=1;whiteSpace=wrap;html=1;" vertex="1" parent="1">
          <mxGeometry x="-240.5" y="620" width="410" height="82.25" as="geometry" />
        </mxCell>
        <mxCell id="tWWG075bvtLCQKelEM6p-122" value="" style="sketch=0;outlineConnect=0;fontColor=#232F3E;gradientColor=none;fillColor=#ED7100;strokeColor=none;dashed=0;verticalLabelPosition=bottom;verticalAlign=top;align=center;html=1;fontSize=12;fontStyle=0;aspect=fixed;pointerEvents=1;shape=mxgraph.aws4.container_1;" vertex="1" parent="1">
          <mxGeometry x="105" y="644" width="48" height="31" as="geometry" />
        </mxCell>
        <mxCell id="tWWG075bvtLCQKelEM6p-129" value="" style="sketch=0;outlineConnect=0;fontColor=#232F3E;gradientColor=none;fillColor=#ED7100;strokeColor=none;dashed=0;verticalLabelPosition=bottom;verticalAlign=top;align=center;html=1;fontSize=12;fontStyle=0;aspect=fixed;pointerEvents=1;shape=mxgraph.aws4.container_1;" vertex="1" parent="1">
          <mxGeometry x="40" y="644" width="48" height="31" as="geometry" />
        </mxCell>
        <mxCell id="tWWG075bvtLCQKelEM6p-130" value="" style="sketch=0;outlineConnect=0;fontColor=#232F3E;gradientColor=none;fillColor=#ED7100;strokeColor=none;dashed=0;verticalLabelPosition=bottom;verticalAlign=top;align=center;html=1;fontSize=12;fontStyle=0;aspect=fixed;pointerEvents=1;shape=mxgraph.aws4.container_1;" vertex="1" parent="1">
          <mxGeometry x="-225" y="649" width="48" height="31" as="geometry" />
        </mxCell>
        <mxCell id="tWWG075bvtLCQKelEM6p-131" value="" style="sketch=0;outlineConnect=0;fontColor=#232F3E;gradientColor=none;fillColor=#ED7100;strokeColor=none;dashed=0;verticalLabelPosition=bottom;verticalAlign=top;align=center;html=1;fontSize=12;fontStyle=0;aspect=fixed;pointerEvents=1;shape=mxgraph.aws4.container_1;" vertex="1" parent="1">
          <mxGeometry x="-145" y="650" width="48" height="31" as="geometry" />
        </mxCell>
        <mxCell id="tWWG075bvtLCQKelEM6p-123" value="" style="sketch=0;points=[[0,0,0],[0.25,0,0],[0.5,0,0],[0.75,0,0],[1,0,0],[0,1,0],[0.25,1,0],[0.5,1,0],[0.75,1,0],[1,1,0],[0,0.25,0],[0,0.5,0],[0,0.75,0],[1,0.25,0],[1,0.5,0],[1,0.75,0]];outlineConnect=0;fontColor=#232F3E;fillColor=#ED7100;strokeColor=#ffffff;dashed=0;verticalLabelPosition=bottom;verticalAlign=top;align=center;html=1;fontSize=12;fontStyle=0;aspect=fixed;shape=mxgraph.aws4.resourceIcon;resIcon=mxgraph.aws4.ecs;" vertex="1" parent="1">
          <mxGeometry x="-55" y="624" width="39" height="39" as="geometry" />
        </mxCell>
        <mxCell id="tWWG075bvtLCQKelEM6p-169" value="ECS Cluster" style="text;html=1;align=center;verticalAlign=middle;whiteSpace=wrap;rounded=0;" vertex="1" parent="1">
          <mxGeometry x="-62.5" y="669" width="60" height="30" as="geometry" />
        </mxCell>
        <mxCell id="tWWG075bvtLCQKelEM6p-170" value="TGW" style="text;html=1;align=center;verticalAlign=middle;whiteSpace=wrap;rounded=0;" vertex="1" parent="1">
          <mxGeometry x="-791" y="50" width="60" height="30" as="geometry" />
        </mxCell>
        <mxCell id="tWWG075bvtLCQKelEM6p-174" style="edgeStyle=orthogonalEdgeStyle;rounded=0;orthogonalLoop=1;jettySize=auto;html=1;exitX=0.5;exitY=0;exitDx=0;exitDy=0;exitPerimeter=0;entryX=0.488;entryY=0.998;entryDx=0;entryDy=0;entryPerimeter=0;" edge="1" parent="1" source="tWWG075bvtLCQKelEM6p-5" target="tWWG075bvtLCQKelEM6p-7">
          <mxGeometry relative="1" as="geometry" />
        </mxCell>
        <mxCell id="tWWG075bvtLCQKelEM6p-175" value="TGW-Attachement" style="text;html=1;align=center;verticalAlign=middle;whiteSpace=wrap;rounded=0;" vertex="1" parent="1">
          <mxGeometry x="-315" y="150" width="60" height="30" as="geometry" />
        </mxCell>
        <mxCell id="tWWG075bvtLCQKelEM6p-176" value="TGW-Attachement" style="text;html=1;align=center;verticalAlign=middle;whiteSpace=wrap;rounded=0;" vertex="1" parent="1">
          <mxGeometry x="-823" y="180" width="60" height="30" as="geometry" />
        </mxCell>
        <mxCell id="tWWG075bvtLCQKelEM6p-177" value="TGW-Attachement" style="text;html=1;align=center;verticalAlign=middle;whiteSpace=wrap;rounded=0;" vertex="1" parent="1">
          <mxGeometry x="-820" y="-20" width="60" height="30" as="geometry" />
        </mxCell>
        <mxCell id="tWWG075bvtLCQKelEM6p-178" value="TGW-Attachement" style="text;html=1;align=center;verticalAlign=middle;whiteSpace=wrap;rounded=0;" vertex="1" parent="1">
          <mxGeometry x="-1500" y="150" width="60" height="30" as="geometry" />
        </mxCell>
      </root>
    </mxGraphModel>
  </diagram>
</mxfile>
